<?xml version="1.0" encoding="UTF-8"?>
<mxGraphModel gridSize="10" pageWidth="850" pageHeight="1100">
    <root>
        <mxCell id="0"/>
        <mxCell id="1" parent="0"/>
        <mxCell id="2" parent="1" value="example-vpc	google_compute_network" style="whiteSpace=wrap;sketch=0;points=[[0,0,0],[0.25,0,0],[0.5,0,0],[0.75,0,0],[1,0,0],[1,0.25,0],[1,0.5,0],[1,0.75,0],[1,1,0],[0.75,1,0],[0.5,1,0],[0.25,1,0],[0,1,0],[0,0.75,0],[0,0.5,0],[0,0.25,0]];rounded=1;absoluteArcSize=1;arcSize=2;html=1;strokeColor=none;gradientColor=none;shadow=0;dashed=0;fontSize=12;fontColor=#9E9E9E;align=left;verticalAlign=top;spacing=10;spacingTop=-4;fillColor=#E3F2FD;" vertex="1">
            <mxGeometry x="30" y="110" width="350" height="380" as="geometry"/>
        </mxCell>
        <mxCell id="3" parent="1" value="subnet-01	google_compute_subnetwork" style="whiteSpace=wrap;sketch=0;points=[[0,0,0],[0.25,0,0],[0.5,0,0],[0.75,0,0],[1,0,0],[1,0.25,0],[1,0.5,0],[1,0.75,0],[1,1,0],[0.75,1,0],[0.5,1,0],[0.25,1,0],[0,1,0],[0,0.75,0],[0,0.5,0],[0,0.25,0]];rounded=1;absoluteArcSize=1;arcSize=2;html=1;strokeColor=none;gradientColor=none;shadow=0;dashed=0;fontSize=12;fontColor=#9E9E9E;align=left;verticalAlign=top;spacing=10;spacingTop=-4;fillColor=#EDE7F6;" vertex="1">
            <mxGeometry x="40" y="140" width="330" height="340" as="geometry"/>
        </mxCell>
        <mxCell id="4" parent="1" value="service_project_1	google_project" style="whiteSpace=wrap;sketch=0;points=[[0,0,0],[0.25,0,0],[0.5,0,0],[0.75,0,0],[1,0,0],[1,0.25,0],[1,0.5,0],[1,0.75,0],[1,1,0],[0.75,1,0],[0.5,1,0],[0.25,1,0],[0,1,0],[0,0.75,0],[0,0.5,0],[0,0.25,0]];rounded=1;absoluteArcSize=1;arcSize=2;html=1;strokeColor=none;gradientColor=none;shadow=0;dashed=0;fontSize=12;fontColor=#9E9E9E;align=left;verticalAlign=top;spacing=10;spacingTop=-4;fillColor=#F1F8E9;" vertex="1">
            <mxGeometry x="480" y="110" width="350" height="380" as="geometry"/>
        </mxCell>
        <mxCell id="5" parent="1" value="" style="whiteSpace=wrap;html=1;strokeColor=#dddddd;shadow=1;strokeWidth=1;rounded=1;absoluteArcSize=1;arcSize=2;" vertex="1">
            <mxGeometry x="50" y="170" width="250" height="60" as="geometry"/>
        </mxCell>
        <mxCell id="6" parent="5" value="testing-cloud-sql-1	google_sql_database" style="whiteSpace=wrap;sketch=0;dashed=0;connectable=0;html=1;fillColor=#5184F3;strokeColor=none;part=1;labelPosition=right;verticalLabelPosition=middle;align=left;verticalAlign=middle;spacingLeft=5;fontColor=#999999;fontSize=12;shape=mxgraph.gcp2.hexIcon;prIcon=cloud_sql" vertex="1">
            <mxGeometry y="0.5" width="44" height="39" relative="1" as="geometry">
                <mxPoint x="5" y="-19.5" as="offset"/>
            </mxGeometry>
        </mxCell>
        <mxCell id="7" parent="1" value="" style="whiteSpace=wrap;html=1;strokeColor=#dddddd;shadow=1;strokeWidth=1;rounded=1;absoluteArcSize=1;arcSize=2;" vertex="1">
            <mxGeometry x="550" y="290" width="250" height="60" as="geometry"/>
        </mxCell>
        <mxCell id="8" parent="7" value="container-cluster-1	google_container_cluster" style="whiteSpace=wrap;html=1;sketch=0;dashed=0;connectable=0;html=1;fillColor=#5184F3;strokeColor=none;part=1;labelPosition=right;verticalLabelPosition=middle;align=left;verticalAlign=middle;spacingLeft=5;fontColor=#999999;fontSize=12;shape=mxgraph.gcp2.kubernetes_logo" vertex="1">
            <mxGeometry width="45" height="45" relative="1" as="geometry">
                <mxPoint x="5" y="7" as="offset"/>
            </mxGeometry>
        </mxCell>
        <mxCell id="9" parent="1" value="" style="whiteSpace=wrap;html=1;strokeColor=#dddddd;shadow=1;strokeWidth=1;rounded=1;absoluteArcSize=1;arcSize=2;" vertex="1">
            <mxGeometry x="550" y="410" width="250" height="60" as="geometry"/>
        </mxCell>
        <mxCell id="10" parent="9" value="flask-vm-test	google_compute_instance" style="whiteSpace=wrap;sketch=0;dashed=0;connectable=0;html=1;fillColor=#5184F3;strokeColor=none;part=1;labelPosition=right;verticalLabelPosition=middle;align=left;verticalAlign=middle;spacingLeft=5;fontColor=#999999;fontSize=12;shape=mxgraph.gcp2.hexIcon;prIcon=compute_engine" vertex="1">
            <mxGeometry y="0.5" width="44" height="39" relative="1" as="geometry">
                <mxPoint x="5" y="-19.5" as="offset"/>
            </mxGeometry>
        </mxCell>
        <mxCell id="11" parent="1" value="" style="whiteSpace=wrap;html=1;edgeStyle=orthogonalEdgeStyle;fontSize=12;html=1;endArrow=blockThin;endFill=1;rounded=0;strokeWidth=2;endSize=4;startSize=4;" edge="1" target="9" source="5">
            <mxGeometry relative="1" as="geometry">
                <mxPoint x="175" y="200" as="sourcePoint"/>
                <mxPoint x="675" y="440" as="targetPoint"/>
                <Array as="points">
                    <mxPoint x="425" y="200"/>
                    <mxPoint x="425" y="440"/>
                </Array>
                <Array as="points">
                    <mxPoint x="425" y="200"/>
                    <mxPoint x="425" y="440"/>
                </Array>
                <Array as="points">
                    <mxPoint x="425" y="200"/>
                    <mxPoint x="425" y="440"/>
                </Array>
                <Array as="points">
                    <mxPoint x="425" y="200"/>
                    <mxPoint x="425" y="440"/>
                </Array>
                <Array as="points">
                    <mxPoint x="425" y="200"/>
                    <mxPoint x="425" y="440"/>
                </Array>
                <Array as="points">
                    <mxPoint x="425" y="200"/>
                    <mxPoint x="425" y="440"/>
                </Array>
            </mxGeometry>
        </mxCell>
        <mxCell id="12" parent="1" value="" style="whiteSpace=wrap;html=1;edgeStyle=orthogonalEdgeStyle;fontSize=12;html=1;endArrow=blockThin;endFill=1;rounded=0;strokeWidth=2;endSize=4;startSize=4;" edge="1" target="7" source="5">
            <mxGeometry relative="1" as="geometry">
                <mxPoint x="175" y="200" as="sourcePoint"/>
                <mxPoint x="675" y="320" as="targetPoint"/>
                <Array as="points">
                    <mxPoint x="425" y="200"/>
                    <mxPoint x="425" y="320"/>
                </Array>
                <Array as="points">
                    <mxPoint x="425" y="200"/>
                    <mxPoint x="425" y="320"/>
                </Array>
                <Array as="points">
                    <mxPoint x="425" y="200"/>
                    <mxPoint x="425" y="320"/>
                </Array>
                <Array as="points">
                    <mxPoint x="425" y="200"/>
                    <mxPoint x="425" y="320"/>
                </Array>
                <Array as="points">
                    <mxPoint x="425" y="200"/>
                    <mxPoint x="425" y="320"/>
                </Array>
                <Array as="points">
                    <mxPoint x="425" y="200"/>
                    <mxPoint x="425" y="320"/>
                </Array>
            </mxGeometry>
        </mxCell>
    </root>
</mxGraphModel>
